{
  "accessors": [
    {
      "bufferView": 2,
      "componentType": 5126,
      "count": 16656,
      "max": [
        34.01762390136719,
        45.23786926269531,
        64.07769775390625
      ],
      "min": [
        -34.01762390136719,
        -0.02864837646484375,
        -64.07769775390625
      ],
      "type": "VEC3"
    },
    {
      "bufferView": 2,
      "byteOffset": 199872,
      "componentType": 5126,
      "count": 16656,
      "max": [
        0.9999716877937317,
        0.9999024868011475,
        0.9997791647911072
      ],
      "min": [
        -0.9999716877937317,
        -0.9999988079071045,
        -1.0
      ],
      "type": "VEC3"
    },
    {
      "bufferView": 3,
      "componentType": 5126,
      "count": 16656,
      "max": [
        0.9999991059303284,
        0.999981701374054,
        0.999739944934845,
        1.0
      ],
      "min": [
        -0.9999977946281433,
        -0.9998793601989746,
        -0.9996334314346313,
        -1.0
      ],
      "type": "VEC4"
    },
    {
      "bufferView": 1,
      "componentType": 5126,
      "count": 16656,
      "max": [
        0.9931086897850037,
        0.9915654063224792
      ],
      "min": [
        0.008914735168218613,
        0.009232699871063232
      ],
      "type": "VEC2"
    },
    {
      "bufferView": 1,
      "byteOffset": 133248,
      "componentType": 5126,
      "count": 16656,
      "max": [
        0.9931086897850037,
        0.9915654063224792
      ],
      "min": [
        0.008914735168218613,
        0.009232699871063232
      ],
      "type": "VEC2"
    },
    {
      "bufferView": 1,
      "byteOffset": 266496,
      "componentType": 5126,
      "count": 16656,
      "max": [
        0.9931086897850037,
        0.9915654063224792
      ],
      "min": [
        0.008914735168218613,
        0.009232699871063232
      ],
      "type": "VEC2"
    },
    {
      "bufferView": 1,
      "byteOffset": 399744,
      "componentType": 5126,
      "count": 16656,
      "max": [
        0.9931086897850037,
        0.9915654063224792
      ],
      "min": [
        0.008914735168218613,
        0.009232699871063232
      ],
      "type": "VEC2"
    },
    {
      "bufferView": 1,
      "byteOffset": 532992,
      "componentType": 5126,
      "count": 16656,
      "max": [
        0.9931086897850037,
        0.9915654063224792
      ],
      "min": [
        0.008914735168218613,
        0.009232699871063232
      ],
      "type": "VEC2"
    },
    {
      "bufferView": 0,
      "componentType": 5125,
      "count": 91668,
      "type": "SCALAR"
    }
  ],
  "asset": {
    "extras": {
      "author": "dinomaster (https://sketchfab.com/dinomaster)",
      "license": "CC-BY-4.0 (http://creativecommons.org/licenses/by/4.0/)",
      "source": "https://sketchfab.com/3d-models/megalodon-9dbd471ec9744c86bcd05d58d4fe9a9d",
      "title": "megalodon"
    },
    "generator": "Sketchfab-14.56.0",
    "version": "2.0"
  },
  "bufferViews": [
    {
      "buffer": 0,
      "byteLength": 366672,
      "name": "floatBufferViews",
      "target": 34963
    },
    {
      "buffer": 0,
      "byteLength": 666240,
      "byteOffset": 366672,
      "byteStride": 8,
      "name": "floatBufferViews",
      "target": 34962
    },
    {
      "buffer": 0,
      "byteLength": 399744,
      "byteOffset": 1032912,
      "byteStride": 12,
      "name": "floatBufferViews",
      "target": 34962
    },
    {
      "buffer": 0,
      "byteLength": 266496,
      "byteOffset": 1432656,
      "byteStride": 16,
      "name": "floatBufferViews",
      "target": 34962
    }
  ],
  "buffers": [
    {
      "byteLength": 1699152,
      "uri": "scene.bin"
    }
  ],
  "extensionsRequired": [
    "KHR_materials_pbrSpecularGlossiness"
  ],
  "extensionsUsed": [
    "KHR_materials_pbrSpecularGlossiness"
  ],
  "images": [
    {
      "uri": "textures/material_0_diffuse.png"
    },
    {
      "uri": "textures/material_0_specularGlossiness.png"
    },
    {
      "uri": "textures/material_0_normal.png"
    },
    {
      "uri": "textures/material_0_occlusion.png"
    }
  ],
  "materials": [
    {
      "doubleSided": true,
      "extensions": {
        "KHR_materials_pbrSpecularGlossiness": {
          "diffuseFactor": [
            1.0,
            1.0,
            1.0,
            1.0
          ],
          "diffuseTexture": {
            "index": 0
          },
          "glossinessFactor": 1.0,
          "specularFactor": [
            1.0,
            1.0,
            1.0
          ],
          "specularGlossinessTexture": {
            "index": 1
          }
        }
      },
      "name": "material_0",
      "normalTexture": {
        "index": 2
      },
      "occlusionTexture": {
        "index": 3
      }
    }
  ],
  "meshes": [
    {
      "name": "Object_0",
      "primitives": [
        {
          "attributes": {
            "NORMAL": 1,
            "POSITION": 0,
            "TANGENT": 2,
            "TEXCOORD_0": 3,
            "TEXCOORD_1": 4,
            "TEXCOORD_2": 5,
            "TEXCOORD_3": 6,
            "TEXCOORD_4": 7
          },
          "indices": 8,
          "material": 0,
          "mode": 4
        }
      ]
    }
  ],
  "nodes": [
    {
      "children": [
        1
      ],
      "matrix": [
        1.0,
        0.0,
        0.0,
        0.0,
        0.0,
        2.220446049250313e-16,
        -1.0,
        0.0,
        0.0,
        1.0,
        2.220446049250313e-16,
        0.0,
        0.0,
        0.0,
        0.0,
        1.0
      ],
      "name": "Sketchfab_model"
    },
    {
      "children": [
        2
      ],
      "name": "root"
    },
    {
      "children": [
        3
      ],
      "matrix": [
        1.0,
        0.0,
        0.0,
        0.0,
        0.0,
        2.220446049250313e-16,
        1.0,
        0.0,
        0.0,
        -1.0,
        2.220446049250313e-16,
        0.0,
        0.0,
        0.0,
        0.0,
        1.0
      ],
      "name": "GLTF_SceneRootNode"
    },
    {
      "children": [
        4
      ],
      "matrix": [
        0.009999999776482582,
        0.0,
        0.0,
        0.0,
        0.0,
        0.009999999776482582,
        0.0,
        0.0,
        0.0,
        0.0,
        0.009999999776482582,
        0.0,
        0.0,
        0.0,
        0.0,
        1.0
      ],
      "name": "RootNode.0_0"
    },
    {
      "children": [
        5
      ],
      "name": "megalodon.1_1"
    },
    {
      "mesh": 0,
      "name": "Object_5"
    }
  ],
  "samplers": [
    {
      "magFilter": 9729,
      "minFilter": 9987,
      "wrapS": 10497,
      "wrapT": 10497
    }
  ],
  "scene": 0,
  "scenes": [
    {
      "name": "Sketchfab_Scene",
      "nodes": [
        0
      ]
    }
  ],
  "textures": [
    {
      "sampler": 0,
      "source": 0
    },
    {
      "sampler": 0,
      "source": 1
    },
    {
      "sampler": 0,
      "source": 2
    },
    {
      "sampler": 0,
      "source": 3
    }
  ]
}
